<?xml version="1.0" encoding="utf-8"?>
<!-- Generator: Adobe Illustrator 22.1.0, SVG Export Plug-In . SVG Version: 6.00 Build 0)  -->
<svg version="1.1"
	 id="Livello_1" xmlns:cc="http://creativecommons.org/ns#" xmlns:dc="http://purl.org/dc/elements/1.1/" xmlns:inkscape="http://www.inkscape.org/namespaces/inkscape" xmlns:rdf="http://www.w3.org/1999/02/22-rdf-syntax-ns#" xmlns:sodipodi="http://sodipodi.sourceforge.net/DTD/sodipodi-0.dtd" xmlns:svg="http://www.w3.org/2000/svg"
	 xmlns="http://www.w3.org/2000/svg" xmlns:xlink="http://www.w3.org/1999/xlink" x="0px" y="0px" viewBox="0 0 100 100"
	 style="enable-background:new 0 0 100 100;" xml:space="preserve">
<style type="text/css">
	.st0{fill:#FFFFFF;}
</style>
<g transform="translate(0,-952.36218)">
	<path class="st0" d="M42.9,1037.7c-7.8,7.8-20.5,7.8-28.3,0c-7.8-7.8-7.8-20.5,0-28.3l14.1-14.1c7.8-7.8,20.5-7.8,28.3,0
		c1.6,0.3,2.6,2.5,2.3,4.1c-0.3,1.6-1.8,2.7-3.5,2.4c-1.2-0.2-2.2-1.2-3.1-2.3c-5.5-5.5-14.3-5.5-19.8,0l-14.1,14.1
		c-5.5,5.5-5.5,14.3,0,19.8c5.5,5.5,14.3,5.5,19.8,0l12.7-12.7c1.2-1.2,3.1-1.2,4.2-0.1c1.2,1.2,1.2,3.1,0.1,4.2c0,0,0,0-0.1,0.1
		L42.9,1037.7L42.9,1037.7z M71.2,1009.4c-7.8,7.8-20.5,7.8-28.3,0c-1.2-1.2-1.2-3.1,0-4.2c1.2-1.2,3.1-1.2,4.2,0c0,0,0,0,0,0
		c5.5,5.5,14.3,5.5,19.8,0L81.1,991c5.5-5.5,5.5-14.3,0-19.8c-5.5-5.5-14.3-5.5-19.8,0L48.6,984c-1.2,1.2-3.1,1.2-4.2,0.1
		c-1.2-1.2-1.2-3.1-0.1-4.2c0,0,0,0,0.1-0.1L57.1,967c7.8-7.8,20.5-7.8,28.3,0c7.8,7.8,7.8,20.5,0,28.3L71.2,1009.4z"/>
</g>
</svg>
