<?xml version="1.0" encoding="utf-8"?>
<!-- Generator: Adobe Illustrator 22.1.0, SVG Export Plug-In . SVG Version: 6.00 Build 0)  -->
<svg version="1.1" id="Livello_1" xmlns="http://www.w3.org/2000/svg" xmlns:xlink="http://www.w3.org/1999/xlink" x="0px" y="0px"
	 viewBox="0 0 32 31.5" style="enable-background:new 0 0 32 31.5;" xml:space="preserve">
<style type="text/css">
	.st0{fill:#FFFFFF;}
</style>
<path class="st0" d="M29.6,2.8l-0.7-0.7c-0.2-0.2-0.5-0.2-0.7,0L16,14.3L3.8,2.1c-0.2-0.2-0.5-0.2-0.7,0L2.4,2.8
	C2.2,3,2.2,3.3,2.4,3.5l12.2,12.2L2.4,27.9c-0.2,0.2-0.2,0.5,0,0.7l0.7,0.7c0.2,0.2,0.5,0.2,0.7,0L16,17.1l12.2,12.2
	c0.2,0.2,0.5,0.2,0.7,0l0.7-0.7c0.2-0.2,0.2-0.5,0-0.7L17.4,15.7L29.6,3.5C29.8,3.3,29.8,3,29.6,2.8z"/>
</svg>
