<?xml version="1.0" encoding="utf-8"?>
<!-- Generator: Adobe Illustrator 24.0.2, SVG Export Plug-In . SVG Version: 6.00 Build 0)  -->
<svg version="1.1" xmlns="http://www.w3.org/2000/svg" xmlns:xlink="http://www.w3.org/1999/xlink" x="0px" y="0px"
	 viewBox="0 0 32 32" style="enable-background:new 0 0 32 32;" xml:space="preserve">
<style type="text/css">
	.st0{fill:#FFFFFF;}
	.st1{clip-path:url(#SVGID_4_);}
	.st2{clip-path:url(#SVGID_6_);}
	.st3{clip-path:url(#SVGID_8_);}
</style>
<g id="Layer_3">
	<g>
		<path d="M28.8,10.4c-1-0.2-2.1,0-2.8,0.7c-0.1-0.7-0.3-1.2-0.5-1.5c-0.3-0.5-1.1-1.3-1.9-1.4C23,8,22.1,8.1,21.3,8.3
			C20.7,8.7,20,9,19.7,9.5c-0.1-0.2-0.2-0.3-0.3-0.5c-0.5-0.5-1.2-0.9-1.8-1.1c-0.1,0-0.2,0-0.2,0c-0.6,0-1.3,0-1.9,0.2
			c-0.4,0.1-0.8,0.3-1.2,0.8c-0.1-0.4-0.1-0.7-0.2-1.2c-0.2-1.9-0.7-3.4-1-4c-0.2-0.5-0.8-2.2-2.1-3c-1-0.5-2.6-0.3-3.4,0.5
			c-1.1,1.1-1,3.2-0.8,4.2c0.1,0.3,0.2,0.8,0.2,1.3C7,7.4,7.1,8.1,7.2,8.3c0.1,0.5,0.2,0.9,0.3,1.3c0.1,0.4,0.2,0.8,0.3,1.3
			c0.1,0.3,0.2,0.5,0.2,0.8c0.1,0.3,0.2,0.6,0.3,1.4c0.1,0.6,0.3,1.2,0.4,1.7c-0.1-0.1-0.1-0.1-0.2-0.2c-0.3-0.3-0.5-0.6-0.7-0.8
			c0,0-0.2-0.1-0.2-0.2c-0.8-0.6-1.9-1.4-3-1.4c-1.7,0-3.2,1.2-3.4,2.7C1,15.8,1,16.3,1.5,17.4c0.2,0.3,0.6,0.7,1,1.2
			c0.7,0.8,1.6,1.9,1.9,2.5C5,22,5.5,22.8,5.8,23.5c0.3,0.6,0.6,1.1,0.9,1.5c0,0.1,0.1,0.1,0.2,0.2l2,1.3l2.2,2.2
			c0.3,0.3,0.3,1.4,0.2,2.1c0,0.2,0,0.4,0.1,0.6c0.1,0.2,0.4,0.3,0.6,0.3c0.6,0,1.4,0,2.1,0c0.8,0,1.5,0,2.2,0c0.7,0,1.3,0,1.7-0.1
			c1.5,0,2.7-2.3,2.9-2.5c0.3,0.8,1.4,2.2,2.4,2.5c0.9,0.2,2.4,0,2.6,0c0.2,0,0.4-0.1,0.5-0.3c0.1-0.2,0.2-0.4,0.1-0.6
			c0,0-0.2-0.9-0.2-1.6c0-0.7,0-0.7,0.2-1.8c0.1-0.7,1.3-2.2,2.2-3.2c0.7-0.9,1.3-2.4,1.5-3c0.2-0.9,0.4-2.7,0.4-3.5V13
			C30.6,11.6,29.9,10.7,28.8,10.4z M29.3,17.6c0,0.7-0.2,2.4-0.4,3.1c-0.2,0.5-0.7,1.8-1.2,2.5c-0.4,0.4-2.3,2.6-2.5,3.9
			C25,28.2,25,28.2,25,29.1c0,0.4,0,0.8,0.1,1.1c-0.5,0-1,0-1.3,0c-0.4-0.1-1.3-1.2-1.4-1.7c0-0.1,0-0.1-0.1-0.2
			c-0.6-1-1.9-1-2.6,0.1c-0.5,0.9-1.2,1.7-1.6,1.8c-0.8,0.1-2.4,0.1-3.8,0c-0.5,0-0.9,0-1.3,0c0-0.8,0-1.9-0.7-2.5l-2.3-2.2l-2-1.3
			c-0.2-0.3-0.5-0.8-0.8-1.3c-0.4-0.7-0.8-1.5-1.5-2.5c-0.4-0.7-1.3-1.7-2-2.6c-0.4-0.5-0.7-0.9-0.9-1c-0.3-0.6-0.3-0.8-0.1-1.5
			c0.1-0.8,1-1.5,2-1.5c0.7,0,1.5,0.6,2.2,1.2C7,15,7.3,15.2,7.5,15.5c0.3,0.3,0.5,0.6,0.7,0.8c0.1,0.1,0.2,0.3,0.3,0.4
			c0.1,0.2,0.2,0.4,0.4,0.5l0.2,0.2c0.2,0.4,0.6,0.9,1.2,0.7c0.6-0.3,0.5-0.9,0.4-1.2c-0.1-0.3-0.1-0.7-0.2-1.1
			c-0.1-0.9-0.3-1.9-0.6-2.9c-0.1-0.8-0.3-1.2-0.4-1.6c-0.1-0.2-0.1-0.4-0.2-0.6C9.2,10.1,9,9.7,9,9.3C8.9,8.9,8.8,8.5,8.6,8
			C8.5,7.7,8.5,7.1,8.3,6.5C8.2,6,8.2,5.5,8.1,5.1C7.9,4.1,8,2.8,8.5,2.3C8.8,1.9,9.7,1.8,10.1,2c0.7,0.4,1.2,1.5,1.5,2.2
			c0.2,0.6,0.7,2,0.9,3.8c0.3,1.6,1,4.8,1,5.3c0,0.4,0.3,0.7,0.7,0.7c0.4,0,0.7-0.3,0.7-0.7c0-0.3,0-0.6,0-0.9c0-0.6-0.1-1.4,0-1.8
			c0.1-0.4,0.4-1,0.9-1.1c0.4-0.1,0.9-0.1,1.4-0.1c0.4,0.1,0.8,0.4,1.1,0.6c0.5,0.7,0.6,2.3,0.6,3.1c0,0.4,0.4,0.7,0.7,0.7
			c0.3,0,0.6-0.2,0.7-0.6c0.1-0.3,0.1-0.8,0.2-1.2c0.1-0.6,0.2-1.4,0.3-1.8c0.1-0.1,0.3-0.3,1-0.6c0.4-0.1,1-0.1,1.5,0
			c0.1,0,0.1,0,0.2,0c0.2,0,0.7,0.4,0.8,0.7c0.2,0.3,0.4,1.4,0.5,2c0.1,0.4,0.1,0.8,0.2,0.9c0,0.4,0.3,0.7,0.6,0.8
			c0.4,0.1,0.7-0.2,0.9-0.7c0.1-0.2,0.2-0.7,0.4-1c0.2-0.4,0.9-0.7,1.5-0.5c0.5,0.1,0.8,0.6,0.8,1.3V17.6z"/>
		<path class="st0" d="M29.3,13.1v4.5c0,0.7-0.2,2.4-0.4,3.1c-0.2,0.5-0.7,1.8-1.2,2.5c-0.4,0.4-2.3,2.6-2.5,3.9
			C25,28.2,25,28.2,25,29.1c0,0.4,0,0.8,0.1,1.1c-0.5,0-1,0-1.3,0c-0.4-0.1-1.3-1.2-1.4-1.7c0-0.1,0-0.1-0.1-0.2
			c-0.6-1-1.9-1-2.6,0.1c-0.5,0.9-1.2,1.7-1.6,1.8c-0.8,0.1-2.4,0.1-3.8,0c-0.5,0-0.9,0-1.3,0c0-0.8,0-1.9-0.7-2.5l-2.3-2.2l-2-1.3
			c-0.2-0.3-0.5-0.8-0.8-1.3c-0.4-0.7-0.8-1.5-1.5-2.5c-0.4-0.7-1.3-1.7-2-2.6c-0.4-0.5-0.7-0.9-0.9-1c-0.3-0.6-0.3-0.8-0.1-1.5
			c0.1-0.8,1-1.5,2-1.5c0.7,0,1.5,0.6,2.2,1.2C7,15,7.3,15.2,7.5,15.5c0.3,0.3,0.5,0.6,0.7,0.8c0.1,0.1,0.2,0.3,0.3,0.4
			c0.1,0.2,0.2,0.4,0.4,0.5l0.2,0.2c0.2,0.4,0.6,0.9,1.2,0.7c0.6-0.3,0.5-0.9,0.4-1.2c-0.1-0.3-0.1-0.7-0.2-1.1
			c-0.1-0.9-0.3-1.9-0.6-2.9c-0.1-0.8-0.3-1.2-0.4-1.6c-0.1-0.2-0.1-0.4-0.2-0.6C9.2,10.1,9,9.7,9,9.3C8.9,8.9,8.8,8.5,8.6,8
			C8.5,7.7,8.5,7.1,8.3,6.5C8.2,6,8.2,5.5,8.1,5.1C7.9,4.1,8,2.8,8.5,2.3C8.8,1.9,9.7,1.8,10.1,2c0.7,0.4,1.2,1.5,1.5,2.2
			c0.2,0.6,0.7,2,0.9,3.8c0.3,1.6,1,4.8,1,5.3c0,0.4,0.3,0.7,0.7,0.7c0.4,0,0.7-0.3,0.7-0.7c0-0.3,0-0.6,0-0.9c0-0.6-0.1-1.4,0-1.8
			c0.1-0.4,0.4-1,0.9-1.1c0.4-0.1,0.9-0.1,1.4-0.1c0.4,0.1,0.8,0.4,1.1,0.6c0.5,0.7,0.6,2.3,0.6,3.1c0,0.4,0.4,0.7,0.7,0.7
			c0.3,0,0.6-0.2,0.7-0.6c0.1-0.3,0.1-0.8,0.2-1.2c0.1-0.6,0.2-1.4,0.3-1.8c0.1-0.1,0.3-0.3,1-0.6c0.4-0.1,1-0.1,1.5,0
			c0.1,0,0.1,0,0.2,0c0.2,0,0.7,0.4,0.8,0.7c0.2,0.3,0.4,1.4,0.5,2c0.1,0.4,0.1,0.8,0.2,0.9c0,0.4,0.3,0.7,0.6,0.8
			c0.4,0.1,0.7-0.2,0.9-0.7c0.1-0.2,0.2-0.7,0.4-1c0.2-0.4,0.9-0.7,1.5-0.5C28.9,11.9,29.2,12.4,29.3,13.1z"/>
	</g>
</g>
<g id="Layer_2">
	<g>
		<defs>
			<rect id="SVGID_1_" x="-15.7" y="-16.3" width="62.4" height="62.4"/>
		</defs>
		<clipPath id="SVGID_2_">
			<use xlink:href="#SVGID_1_"  style="overflow:visible;"/>
		</clipPath>
	</g>
	<g>
		<defs>
			<rect id="SVGID_3_" x="-15.7" y="-16.3" width="62.4" height="62.4"/>
		</defs>
		<clipPath id="SVGID_4_">
			<use xlink:href="#SVGID_3_"  style="overflow:visible;"/>
		</clipPath>
		<g class="st1">
			<path d="M22.6,24.8c-0.4,0-0.7-0.3-0.7-0.7v-6.6c0-0.4,0.3-0.7,0.7-0.7c0.4,0,0.7,0.3,0.7,0.7v6.6C23.3,24.5,23,24.8,22.6,24.8z"
				/>
		</g>
	</g>
	<g>
		<defs>
			<rect id="SVGID_5_" x="-15.7" y="-16.3" width="62.4" height="62.4"/>
		</defs>
		<clipPath id="SVGID_6_">
			<use xlink:href="#SVGID_5_"  style="overflow:visible;"/>
		</clipPath>
		<g class="st2">
			<path d="M18.7,24.8c-0.4,0-0.7-0.3-0.7-0.7l-0.2-6.6c0-0.4,0.3-0.7,0.7-0.8c0.4,0,0.7,0.3,0.8,0.7l0.2,6.6
				C19.4,24.5,19.1,24.8,18.7,24.8C18.7,24.8,18.7,24.8,18.7,24.8z"/>
		</g>
	</g>
	<g>
		<defs>
			<rect id="SVGID_7_" x="-15.7" y="-16.3" width="62.4" height="62.4"/>
		</defs>
		<clipPath id="SVGID_8_">
			<use xlink:href="#SVGID_7_"  style="overflow:visible;"/>
		</clipPath>
		<g class="st3">
			<path d="M14.8,24.8c-0.4,0-0.7-0.3-0.7-0.7v-6.6c0-0.4,0.3-0.7,0.7-0.7c0.4,0,0.7,0.3,0.7,0.7v6.6C15.5,24.5,15.2,24.8,14.8,24.8
				z"/>
		</g>
	</g>
</g>
</svg>
