<?xml version="1.0" encoding="utf-8"?>
<!-- Generator: Adobe Illustrator 24.0.2, SVG Export Plug-In . SVG Version: 6.00 Build 0)  -->
<svg version="1.1" xmlns="http://www.w3.org/2000/svg" xmlns:xlink="http://www.w3.org/1999/xlink" x="0px" y="0px"
	 viewBox="0 0 32 32" style="enable-background:new 0 0 32 32;" xml:space="preserve">
<style type="text/css">
	.st0{fill:#FFFFFF;}
	.st1{clip-path:url(#SVGID_4_);}
	.st2{clip-path:url(#SVGID_6_);}
	.st3{clip-path:url(#SVGID_8_);}
</style>
<g id="Layer_3">
	<g>
		<path d="M3.2,21.6c1,0.2,2.1,0,2.8-0.7c0.1,0.7,0.3,1.2,0.5,1.5c0.3,0.5,1.1,1.3,1.9,1.4c0.7,0.2,1.6,0.2,2.4-0.1
			c0.6-0.3,1.3-0.7,1.6-1.2c0.1,0.2,0.2,0.3,0.3,0.5c0.5,0.5,1.2,0.9,1.8,1.1c0.1,0,0.2,0,0.2,0c0.6,0,1.3,0,1.9-0.2
			c0.4-0.1,0.8-0.3,1.2-0.8c0.1,0.4,0.1,0.7,0.2,1.2c0.2,1.9,0.7,3.4,1,4c0.2,0.5,0.8,2.2,2.1,3c1,0.5,2.6,0.3,3.4-0.5
			c1.1-1.1,1-3.2,0.8-4.2c-0.1-0.3-0.2-0.8-0.2-1.3c-0.1-0.7-0.2-1.3-0.3-1.6c-0.1-0.5-0.2-0.9-0.3-1.3c-0.1-0.4-0.2-0.8-0.3-1.3
			c-0.1-0.3-0.2-0.5-0.2-0.8c-0.1-0.3-0.2-0.6-0.3-1.4c-0.1-0.6-0.3-1.2-0.4-1.7c0.1,0.1,0.1,0.1,0.2,0.2c0.3,0.3,0.5,0.6,0.7,0.8
			c0,0,0.2,0.1,0.2,0.2c0.8,0.6,1.9,1.4,3,1.4c1.7,0,3.2-1.2,3.4-2.7c0.2-0.9,0.2-1.5-0.3-2.6c-0.2-0.3-0.6-0.7-1-1.2
			c-0.7-0.8-1.6-1.9-1.9-2.5c-0.6-0.9-1.1-1.7-1.4-2.4c-0.3-0.6-0.6-1.1-0.9-1.5c0-0.1-0.1-0.1-0.2-0.2l-2-1.3l-2.2-2.2
			c-0.3-0.3-0.3-1.4-0.2-2.1c0-0.2,0-0.4-0.1-0.6c-0.1-0.2-0.4-0.3-0.6-0.3c-0.6,0-1.4,0-2.1,0c-0.8,0-1.5,0-2.3,0
			c-0.7,0-1.3,0-1.7,0.1c-1.5,0-2.7,2.3-2.9,2.5c-0.3-0.8-1.4-2.2-2.4-2.5c-0.9-0.2-2.4,0-2.6,0c-0.2,0-0.4,0.1-0.5,0.3
			C5.4,0.9,5.3,1.1,5.3,1.3c0,0,0.2,0.9,0.2,1.6c0,0.7,0,0.7-0.2,1.8C5.2,5.4,4,7,3.1,7.9c-0.7,0.9-1.3,2.4-1.5,3
			c-0.2,0.9-0.4,2.7-0.4,3.5V19C1.3,20.4,2,21.3,3.2,21.6z M2.7,14.4c0-0.7,0.2-2.4,0.4-3.1c0.2-0.5,0.7-1.8,1.2-2.5
			C4.6,8.5,6.6,6.3,6.8,5C7,3.8,7,3.8,7,2.9c0-0.4,0-0.8-0.1-1.1c0.5,0,1,0,1.3,0C8.7,2,9.5,3.1,9.7,3.5c0,0.1,0,0.1,0.1,0.2
			c0.6,1,1.9,1,2.6-0.1c0.5-0.9,1.2-1.7,1.6-1.8c0.8-0.1,2.4-0.1,3.8,0c0.5,0,0.9,0,1.3,0c0,0.8,0,1.9,0.7,2.5l2.3,2.2l2,1.3
			c0.2,0.3,0.5,0.8,0.8,1.3c0.4,0.7,0.8,1.5,1.5,2.5c0.4,0.7,1.3,1.7,2,2.6c0.4,0.5,0.7,0.9,0.9,1c0.3,0.6,0.3,0.8,0.1,1.5
			c-0.1,0.8-1,1.5-2,1.5c-0.7,0-1.5-0.6-2.2-1.2c-0.2-0.2-0.4-0.5-0.6-0.7c-0.3-0.3-0.5-0.6-0.7-0.8c-0.1-0.1-0.2-0.3-0.3-0.4
			c-0.1-0.2-0.2-0.4-0.4-0.5l-0.2-0.2c-0.2-0.4-0.6-0.9-1.2-0.7c-0.6,0.3-0.5,0.9-0.4,1.2c0.1,0.3,0.1,0.7,0.2,1.1
			c0.1,0.9,0.3,1.9,0.6,2.9c0.1,0.8,0.3,1.2,0.4,1.6c0.1,0.2,0.1,0.4,0.2,0.6c0.1,0.5,0.2,0.9,0.3,1.3c0.1,0.4,0.2,0.8,0.3,1.3
			c0.1,0.3,0.2,0.9,0.3,1.5c0.1,0.5,0.2,1,0.3,1.4c0.2,1,0.1,2.4-0.4,2.9c-0.4,0.4-1.2,0.5-1.6,0.3c-0.7-0.4-1.2-1.5-1.5-2.2
			c-0.2-0.6-0.7-2-0.9-3.8c-0.3-1.6-1-4.8-1-5.3c0-0.4-0.3-0.7-0.7-0.7c-0.4,0-0.7,0.3-0.7,0.7c0,0.3,0,0.6,0,0.9
			c0,0.6,0.1,1.4,0,1.8c-0.1,0.4-0.4,1-0.9,1.1c-0.4,0.1-0.9,0.1-1.4,0.1c-0.4-0.1-0.8-0.4-1.1-0.6c-0.5-0.7-0.6-2.3-0.6-3.1
			c0-0.4-0.4-0.7-0.7-0.7c-0.3,0-0.6,0.2-0.7,0.6c-0.1,0.3-0.1,0.8-0.2,1.2c-0.1,0.6-0.2,1.4-0.3,1.8c-0.1,0.1-0.3,0.3-1,0.6
			c-0.4,0.1-1,0.1-1.5,0c-0.1,0-0.1,0-0.2,0c-0.2,0-0.7-0.4-0.8-0.7c-0.2-0.3-0.4-1.4-0.5-2C7.1,19.2,7,18.8,7,18.7
			C7,18.4,6.7,18,6.4,18c-0.4-0.1-0.7,0.2-0.9,0.7c-0.1,0.2-0.2,0.7-0.4,1c-0.2,0.4-0.9,0.7-1.5,0.5c-0.5-0.1-0.8-0.6-0.8-1.3V14.4z
			"/>
		<path class="st0" d="M2.7,18.9v-4.5c0-0.7,0.2-2.4,0.4-3.1c0.2-0.5,0.7-1.8,1.2-2.5C4.6,8.5,6.6,6.3,6.8,5C7,3.8,7,3.8,7,2.9
			c0-0.4,0-0.8-0.1-1.1c0.5,0,1,0,1.3,0C8.7,2,9.5,3.1,9.7,3.5c0,0.1,0,0.1,0.1,0.2c0.6,1,1.9,1,2.6-0.1c0.5-0.9,1.2-1.7,1.6-1.8
			c0.8-0.1,2.4-0.1,3.8,0c0.5,0,0.9,0,1.3,0c0,0.8,0,1.9,0.7,2.5l2.3,2.2l2,1.3c0.2,0.3,0.5,0.8,0.8,1.3c0.4,0.7,0.8,1.5,1.5,2.5
			c0.4,0.7,1.3,1.7,2,2.6c0.4,0.5,0.7,0.9,0.9,1c0.3,0.6,0.3,0.8,0.1,1.5c-0.1,0.8-1,1.5-2,1.5c-0.7,0-1.5-0.6-2.2-1.2
			c-0.2-0.2-0.4-0.5-0.6-0.7c-0.3-0.3-0.5-0.6-0.7-0.8c-0.1-0.1-0.2-0.3-0.3-0.4c-0.1-0.2-0.2-0.4-0.4-0.5l-0.2-0.2
			c-0.2-0.4-0.6-0.9-1.2-0.7c-0.6,0.3-0.5,0.9-0.4,1.2c0.1,0.3,0.1,0.7,0.2,1.1c0.1,0.9,0.3,1.9,0.6,2.9c0.1,0.8,0.3,1.2,0.4,1.6
			c0.1,0.2,0.1,0.4,0.2,0.6c0.1,0.5,0.2,0.9,0.3,1.3c0.1,0.4,0.2,0.8,0.3,1.3c0.1,0.3,0.2,0.9,0.3,1.5c0.1,0.5,0.2,1,0.3,1.4
			c0.2,1,0.1,2.4-0.4,2.9c-0.4,0.4-1.2,0.5-1.6,0.3c-0.7-0.4-1.2-1.5-1.5-2.2c-0.2-0.6-0.7-2-0.9-3.8c-0.3-1.6-1-4.8-1-5.3
			c0-0.4-0.3-0.7-0.7-0.7c-0.4,0-0.7,0.3-0.7,0.7c0,0.3,0,0.6,0,0.9c0,0.6,0.1,1.4,0,1.8c-0.1,0.4-0.4,1-0.9,1.1
			c-0.4,0.1-0.9,0.1-1.4,0.1c-0.4-0.1-0.8-0.4-1.1-0.6c-0.5-0.7-0.6-2.3-0.6-3.1c0-0.4-0.4-0.7-0.7-0.7c-0.3,0-0.6,0.2-0.7,0.6
			c-0.1,0.3-0.1,0.8-0.2,1.2c-0.1,0.6-0.2,1.4-0.3,1.8c-0.1,0.1-0.3,0.3-1,0.6c-0.4,0.1-1,0.1-1.5,0c-0.1,0-0.1,0-0.2,0
			c-0.2,0-0.7-0.4-0.8-0.7c-0.2-0.3-0.4-1.4-0.5-2C7.1,19.2,7,18.8,7,18.7C7,18.4,6.7,18,6.4,18c-0.4-0.1-0.7,0.2-0.9,0.7
			c-0.1,0.2-0.2,0.7-0.4,1c-0.2,0.4-0.9,0.7-1.5,0.5C3,20.1,2.8,19.6,2.7,18.9z"/>
	</g>
</g>
<g id="Layer_2">
	<g>
		<defs>
			<rect id="SVGID_1_" x="-14.8" y="-16.3" width="62.4" height="62.4"/>
		</defs>
		<clipPath id="SVGID_2_">
			<use xlink:href="#SVGID_1_"  style="overflow:visible;"/>
		</clipPath>
	</g>
	<g>
		<defs>
			<rect id="SVGID_3_" x="-14.8" y="-14.1" width="62.4" height="62.4"/>
		</defs>
		<clipPath id="SVGID_4_">
			<use xlink:href="#SVGID_3_"  style="overflow:visible;"/>
		</clipPath>
		<g class="st1">
			<path d="M9.4,7.2c0.4,0,0.7,0.3,0.7,0.7v6.6c0,0.4-0.3,0.7-0.7,0.7S8.7,15,8.7,14.6V7.9C8.7,7.5,9,7.2,9.4,7.2z"/>
		</g>
	</g>
	<g>
		<defs>
			<rect id="SVGID_5_" x="-14.8" y="-14.1" width="62.4" height="62.4"/>
		</defs>
		<clipPath id="SVGID_6_">
			<use xlink:href="#SVGID_5_"  style="overflow:visible;"/>
		</clipPath>
		<g class="st2">
			<path d="M13.3,7.2c0.4,0,0.7,0.3,0.7,0.7l0.2,6.6c0,0.4-0.3,0.7-0.7,0.8c-0.4,0-0.7-0.3-0.8-0.7l-0.2-6.6
				C12.6,7.5,12.9,7.2,13.3,7.2C13.3,7.2,13.3,7.2,13.3,7.2z"/>
		</g>
	</g>
	<g>
		<defs>
			<rect id="SVGID_7_" x="-14.8" y="-14.1" width="62.4" height="62.4"/>
		</defs>
		<clipPath id="SVGID_8_">
			<use xlink:href="#SVGID_7_"  style="overflow:visible;"/>
		</clipPath>
		<g class="st3">
			<path d="M17.2,7.2c0.4,0,0.7,0.3,0.7,0.7v6.6c0,0.4-0.3,0.7-0.7,0.7c-0.4,0-0.7-0.3-0.7-0.7V7.9C16.5,7.5,16.8,7.2,17.2,7.2z"/>
		</g>
	</g>
</g>
</svg>
